<svg width="22" height="22" viewBox="0 0 22 22" fill="none" xmlns="http://www.w3.org/2000/svg">
<g clip-path="url(#clip0_5_2)">
<path d="M13.8532 17.8449C15.6394 15.1283 15.339 11.4404 12.9521 9.05044C10.5451 6.64038 6.81971 6.35488 4.10034 8.19395M13.8532 17.8449C13.5961 18.2359 13.2957 18.6068 12.9521 18.9508C11.3638 20.5411 7.99563 21.9161 5.26196 20.2246C5.10983 20.1305 5.03377 20.0834 4.97625 20.0606C4.86629 20.017 4.78289 20.0044 4.66496 20.0135C4.60329 20.0183 4.53341 20.0364 4.39365 20.0727C3.51422 20.3009 3.0745 20.415 2.75772 20.3505C2.2079 20.2384 1.77821 19.8082 1.66631 19.2577C1.60184 18.9405 1.71581 18.5002 1.94375 17.6197C1.97998 17.4797 1.9981 17.4098 2.00285 17.3478C2.0119 17.2297 1.99904 17.1453 1.95528 17.0352C1.93232 16.9775 1.88538 16.9019 1.7915 16.7506C0.0963423 14.0195 1.40825 10.7085 3.06419 9.05044C3.38764 8.72658 3.73491 8.44108 4.10034 8.19395M13.8532 17.8449L14 17.8198C14.6216 17.6705 15.2353 17.4232 15.8248 17.0585C16.0095 16.9441 16.1019 16.887 16.1717 16.8593C16.3052 16.8064 16.4065 16.791 16.5497 16.8021C16.6246 16.8079 16.7094 16.8299 16.8791 16.874C17.947 17.1511 18.481 17.2897 18.8656 17.2113C19.5333 17.0753 20.055 16.5528 20.1909 15.8843C20.2692 15.4992 20.1308 14.9646 19.854 13.8954C19.81 13.7254 19.788 13.6404 19.7823 13.5652C19.7713 13.4218 19.7869 13.3192 19.84 13.1856C19.8679 13.1155 19.9249 13.0237 20.0389 12.8401C22.0973 9.52364 20.5043 5.50314 18.4935 3.48982C15.1779 0.17006 9.80228 0.17006 6.48669 3.48982C5.1619 4.81628 4.36645 6.47204 4.10034 8.19395" stroke="#43C67A" stroke-width="1.5"/>
</g>
<defs>
<clipPath id="clip0_5_2">
<rect width="22" height="22" fill="white"/>
</clipPath>
</defs>
</svg>
