<!DOCTYPE svg PUBLIC "-//W3C//DTD SVG 1.1//EN" "http://www.w3.org/Graphics/SVG/1.1/DTD/svg11.dtd">
<!-- Uploaded to: SVG Repo, www.svgrepo.com, Transformed by: SVG Repo Mixer Tools -->
<svg width="800px" height="800px" viewBox="0 0 24 24" fill="none" xmlns="http://www.w3.org/2000/svg">
<g id="SVGRepo_bgCarrier" stroke-width="0"/>
<g id="SVGRepo_tracerCarrier" stroke-linecap="round" stroke-linejoin="round"/>
<g id="SVGRepo_iconCarrier"> <g id="style=doutone"> <g id="lock-circle"> <path id="vector (Stroke)" fill-rule="evenodd" clip-rule="evenodd" d="M7.22703 3.22703C8.4929 1.96116 10.2098 1.25 12 1.25C13.7902 1.25 15.5071 1.96116 16.773 3.22703C18.0388 4.4929 18.75 6.20979 18.75 8C18.75 8.41421 18.4142 8.75 18 8.75C17.5858 8.75 17.25 8.41421 17.25 8C17.25 6.60761 16.6969 5.27226 15.7123 4.28769C14.7277 3.30312 13.3924 2.75 12 2.75C10.6076 2.75 9.27226 3.30312 8.28769 4.28769C7.30312 5.27225 6.75 6.60761 6.75 8C6.75 8.41421 6.41421 8.75 6 8.75C5.58579 8.75 5.25 8.41421 5.25 8C5.25 6.20979 5.96116 4.4929 7.22703 3.22703Z" fill="#B3E8C9"/> <path id="vector (Stroke)_2" fill-rule="evenodd" clip-rule="evenodd" d="M1.25 13C1.25 9.82436 3.82436 7.25 7 7.25H17C20.1756 7.25 22.75 9.82436 22.75 13V17C22.75 20.1756 20.1756 22.75 17 22.75H7C3.82436 22.75 1.25 20.1756 1.25 17V13ZM7 8.75C4.65279 8.75 2.75 10.6528 2.75 13V17C2.75 19.3472 4.65279 21.25 7 21.25H17C19.3472 21.25 21.25 19.3472 21.25 17V13C21.25 10.6528 19.3472 8.75 17 8.75H7Z" fill="#43c67a"/> <path id="vector (Stroke)_3" fill-rule="evenodd" clip-rule="evenodd" d="M12 13.75C11.3096 13.75 10.75 14.3096 10.75 15C10.75 15.6904 11.3096 16.25 12 16.25C12.6904 16.25 13.25 15.6904 13.25 15C13.25 14.3096 12.6904 13.75 12 13.75ZM9.25 15C9.25 13.4812 10.4812 12.25 12 12.25C13.5188 12.25 14.75 13.4812 14.75 15C14.75 16.5188 13.5188 17.75 12 17.75C10.4812 17.75 9.25 16.5188 9.25 15Z" fill="#B3E8C9"/> </g> </g> </g>
</svg>